<?xml version="1.0" encoding="UTF-8" standalone="no"?>
<svg
   xmlns:dc="http://purl.org/dc/elements/1.1/"
   xmlns:cc="http://creativecommons.org/ns#"
   xmlns:rdf="http://www.w3.org/1999/02/22-rdf-syntax-ns#"
   xmlns:svg="http://www.w3.org/2000/svg"
   xmlns="http://www.w3.org/2000/svg"
   xmlns:sodipodi="http://sodipodi.sourceforge.net/DTD/sodipodi-0.dtd"
   xmlns:inkscape="http://www.inkscape.org/namespaces/inkscape"
   width="16"
   height="15.773551"
   viewBox="0 0 15 14.787704"
   id="svg2"
   version="1.1"
   style="enable-background:new"
   sodipodi:docname="au2.file.inkscape.svg"
   inkscape:version="0.92.1 r15371">
  <metadata
     id="metadata5062">
    <rdf:RDF>
      <cc:Work
         rdf:about="">
        <dc:format>image/svg+xml</dc:format>
        <dc:type
           rdf:resource="http://purl.org/dc/dcmitype/StillImage" />
        <dc:title></dc:title>
      </cc:Work>
    </rdf:RDF>
  </metadata>
  <defs
     id="defs5060" />
  <sodipodi:namedview
     pagecolor="#ffffff"
     bordercolor="#666666"
     borderopacity="1"
     objecttolerance="10"
     gridtolerance="10"
     guidetolerance="10"
     inkscape:pageopacity="0"
     inkscape:pageshadow="2"
     inkscape:window-width="1920"
     inkscape:window-height="1018"
     id="namedview5058"
     showgrid="false"
     units="px"
     fit-margin-left="1"
     fit-margin-right="1"
     fit-margin-top="1"
     fit-margin-bottom="1"
     inkscape:zoom="21.48496"
     inkscape:cx="23.862658"
     inkscape:cy="6.9760744"
     inkscape:window-x="-8"
     inkscape:window-y="-8"
     inkscape:window-maximized="1"
     inkscape:current-layer="text5066"
     inkscape:pagecheckerboard="true" />
  <path
     sodipodi:nodetypes="cccccccscc"
     inkscape:connector-curvature="0"
     id="path4171"
     d="m 2.1586284,12.748418 2.8346288,0.007 3.2509014,-4.5769019 1.8991404,2.6754559 -2.2519017,0.01403 -1.3401341,1.887414 7.7948648,-0.02807 L 9.6732012,6.0828339 C 8.9947147,5.118079 7.6018894,5.1567151 6.9227699,6.1038832 Z"
     style="fill:#ffffff;fill-opacity:1;fill-rule:evenodd;stroke:none;stroke-width:0.09636969px;stroke-linecap:butt;stroke-linejoin:miter;stroke-opacity:1" />
  <g
     id="text5066"
     style="font-style:normal;font-variant:normal;font-weight:normal;font-stretch:normal;font-size:7.58054733px;line-height:1.25;font-family:sans-serif;-inkscape-font-specification:sans-serif;letter-spacing:0px;word-spacing:0px;fill:#ffffff;fill-opacity:1;stroke:#ffffff;stroke-width:0.28687501;stroke-miterlimit:4;stroke-dasharray:none;stroke-opacity:1"
     transform="matrix(1.4499454,0,0,0.68414643,-0.50476345,0.545695)"
     aria-label="2">
    <path
       inkscape:connector-curvature="0"
       id="path5070"
       style="font-style:normal;font-variant:normal;font-weight:normal;font-stretch:normal;font-family:DokChampa;-inkscape-font-specification:DokChampa;fill:#ffffff;fill-opacity:1;stroke:#ffffff;stroke-width:0.64392756;stroke-miterlimit:4;stroke-dasharray:none;stroke-opacity:1"
       d="M 9.7608594,6.1658697 H 6.166762 q 0,-0.4589784 0.3183238,-0.9290612 Q 6.807111,4.7667257 7.684352,4.0597508 8.2210607,3.6303839 8.6430248,3.1603011 q 0.421964,-0.4737842 0.421964,-0.9512698 0,-0.4108598 -0.2924137,-0.6773634 -0.2887122,-0.270205 -0.7328849,-0.270205 -0.4478741,0 -0.7513921,0.2776079 -0.303518,0.2739065 -0.3072195,0.8217195 L 6.2963124,2.2830601 Q 6.3592368,1.5205636 6.8367225,1.1171067 7.3179096,0.71364988 8.054496,0.71364988 q 0.7995108,0 1.2436835,0.44417272 0.4478741,0.4404712 0.4478741,1.0660144 0,0.521903 -0.3775468,1.0586116 Q 8.9946615,3.8154559 7.8731254,4.7112041 7.2845966,5.1812869 7.0921218,5.5218193 h 2.6687376 z" />
  </g>
</svg>
