<?xml version="1.0" encoding="UTF-8"?>
<svg xmlns="http://www.w3.org/2000/svg" xmlns:xlink="http://www.w3.org/1999/xlink" width="128px" height="128px" viewBox="0 0 128 128" version="1.1">
<defs>
<clipPath id="clip1">
  <rect x="0" y="0" width="128" height="128"/>
</clipPath>
<g id="surface5" clip-path="url(#clip1)">
<path style="fill-rule:evenodd;fill:rgb(36.470588%,51.372549%,67.45098%);fill-opacity:1;stroke-width:12.231609;stroke-linecap:butt;stroke-linejoin:miter;stroke:rgb(100%,100%,100%);stroke-opacity:1;stroke-miterlimit:4;" d="M 435.107557 408.95569 C 422.424604 408.96216 411.211378 417.165773 407.366469 429.251222 C 392.5511 420.717653 375.721419 416.208253 358.576796 416.175905 C 304.859603 416.175905 261.312392 459.206056 261.312392 512.283692 C 261.312392 565.361329 304.859603 608.39148 358.576796 608.39148 C 412.293989 608.39148 455.8412 565.361329 455.8412 512.283692 C 455.801832 496.051148 451.602613 480.090333 443.63722 465.895753 C 455.860883 462.149781 464.213392 450.866578 464.226515 438.082399 C 464.226515 421.998659 451.189253 408.95569 435.107557 408.95569 Z M 435.107557 408.95569 " transform="matrix(0.595349,0,0,0.603774,-151.931405,-243.225238)"/>
<path style=" stroke:none;fill-rule:evenodd;fill:rgb(100%,100%,100%);fill-opacity:1;" d="M 24.558594 83.574219 L 42.070312 83.617188 L 61.75 56.585938 L 73.886719 71.707031 L 54.988281 71.792969 L 46.710938 83.617188 L 99.851562 83.441406 L 70.984375 41.8125 C 66.792969 35.769531 58.1875 36.011719 53.992188 41.945312 Z M 24.558594 83.574219 "/>
<path style=" stroke:none;fill-rule:evenodd;fill:rgb(100%,100%,100%);fill-opacity:1;" d="M 98.875 13.546875 L 100.761719 16.363281 L 110.601562 16.492188 C 112.523438 16.519531 112.480469 18.769531 110.558594 18.78125 L 102.667969 18.824219 L 104.878906 21.636719 L 110.90625 21.769531 C 113.179688 21.816406 113.21875 23.914062 111.035156 23.921875 L 98.941406 23.746094 L 100.980469 26.253906 L 111.164062 26.515625 C 113.664062 26.582031 119.09375 23.988281 114.980469 19.964844 C 118.675781 16.554688 113.769531 13.628906 111.316406 13.613281 Z M 98.875 13.546875 "/>
</g>
</defs>
<g id="surface1">
<use xlink:href="#surface5"/>
</g>
</svg>
